<?xml version="1.0" standalone="no"?>
<!DOCTYPE svg PUBLIC "-//W3C//DTD SVG 20010904//EN"
 "http://www.w3.org/TR/2001/REC-SVG-20010904/DTD/svg10.dtd">
<svg version="1.0" xmlns="http://www.w3.org/2000/svg"
 width="640.000000pt" height="640.000000pt" viewBox="0 0 640.000000 640.000000"
 preserveAspectRatio="xMidYMid meet">
<metadata>
Created by potrace 1.16, written by Peter Selinger 2001-2019
</metadata>
<g transform="translate(0.000000,640.000000) scale(0.100000,-0.100000)"
fill="#000000" stroke="none">
<path d="M3085 5854 c-71 -42 -182 -107 -245 -144 -63 -38 -192 -113 -285
-168 -94 -54 -201 -118 -239 -141 -37 -22 -70 -41 -72 -41 -3 0 -316 -184
-460 -271 -45 -27 -84 -49 -88 -49 -4 0 -12 -5 -19 -10 -7 -6 -59 -38 -117
-71 -58 -34 -161 -94 -230 -134 -69 -40 -181 -105 -250 -145 -69 -40 -168 -98
-220 -129 -52 -31 -108 -63 -123 -71 -15 -8 -115 -66 -223 -129 l-194 -115 45
-28 c25 -16 95 -57 155 -91 223 -127 862 -495 1045 -602 55 -32 114 -65 130
-73 17 -9 57 -32 90 -52 33 -20 125 -74 205 -120 80 -45 189 -109 243 -141 54
-33 101 -59 104 -59 4 0 74 -40 173 -99 14 -9 83 -49 519 -300 125 -72 198
-108 205 -102 6 5 63 38 126 73 257 144 539 302 600 338 36 20 139 79 230 130
199 111 303 170 390 220 36 20 85 49 110 62 113 63 314 177 525 296 126 72
233 128 237 126 4 -3 8 -295 8 -649 l0 -643 -182 -105 c-185 -105 -418 -238
-868 -492 -135 -77 -348 -198 -475 -270 -233 -133 -578 -329 -671 -380 l-51
-28 -79 45 c-156 88 -610 351 -644 373 -19 13 -55 34 -80 47 -25 14 -158 91
-296 171 -138 80 -278 160 -310 177 -32 18 -63 36 -69 40 -5 4 -71 43 -145 86
-383 221 -520 300 -570 329 l-55 31 -3 409 -3 410 -107 60 c-59 33 -205 117
-324 186 l-218 127 0 -777 0 -777 128 -74 c222 -128 256 -147 292 -167 19 -11
123 -71 230 -133 351 -204 727 -421 828 -479 34 -20 144 -83 243 -141 100 -58
200 -116 223 -129 22 -13 247 -147 498 -298 l457 -274 238 137 c131 75 310
178 398 229 88 51 297 171 465 267 168 97 377 217 465 268 185 106 542 312
830 479 110 63 262 149 338 192 75 42 144 82 152 89 13 11 15 138 13 1058 l-3
1046 -150 86 c-82 48 -226 130 -319 184 -94 55 -176 96 -186 93 -16 -4 -136
-76 -1050 -627 -1018 -614 -1179 -710 -1192 -710 -8 0 -231 130 -497 290 -265
159 -505 302 -534 318 -28 16 -101 58 -162 94 -60 36 -144 85 -185 109 -41 24
-88 51 -105 61 -16 10 -51 29 -77 43 -27 14 -48 31 -48 38 0 6 44 37 98 68
100 57 423 247 592 347 52 31 104 62 115 68 33 18 154 87 260 149 185 108 329
192 437 255 l107 62 43 -24 c24 -14 176 -103 338 -198 162 -95 315 -184 339
-197 24 -13 136 -78 250 -145 113 -67 213 -121 222 -121 9 1 54 24 100 51 46
28 187 109 313 180 221 126 227 131 204 145 -30 19 -202 120 -403 237 -88 51
-204 120 -258 152 -54 33 -113 68 -132 78 -18 10 -158 92 -311 182 -480 283
-694 408 -697 408 -1 0 -60 -34 -132 -76z"/>
<path d="M3180 4822 c-85 -50 -543 -313 -576 -330 -91 -49 -419 -242 -421
-249 -2 -7 46 -37 269 -167 38 -22 54 -27 67 -19 9 5 36 21 61 35 25 14 183
105 352 202 169 97 314 176 322 176 8 0 36 -13 63 -29 139 -82 363 -211 368
-211 3 0 31 -16 62 -36 42 -27 61 -34 73 -27 8 6 84 50 168 98 124 71 150 90
141 101 -6 8 -16 14 -21 14 -5 0 -34 16 -64 35 -30 19 -57 35 -61 35 -3 0 -38
20 -77 44 -39 24 -179 105 -311 179 -132 74 -260 147 -285 161 -25 14 -49 26
-55 26 -5 0 -39 -17 -75 -38z"/>
<path d="M1290 2912 l0 -267 118 -66 c64 -36 185 -105 267 -153 83 -48 157
-91 165 -96 8 -5 50 -29 93 -54 43 -25 80 -46 82 -46 3 0 28 -15 57 -33 29
-19 78 -47 108 -64 30 -17 84 -47 120 -68 36 -20 99 -56 140 -80 96 -53 331
-190 581 -337 l196 -115 39 22 c21 12 185 107 364 210 179 103 388 223 465
266 77 43 147 83 155 88 20 13 467 272 685 396 94 54 178 104 187 112 15 13
17 44 18 279 0 213 -2 264 -13 264 -7 0 -17 -4 -22 -9 -6 -6 -41 -27 -80 -49
-38 -21 -142 -81 -230 -132 -88 -51 -263 -152 -390 -225 -293 -168 -845 -488
-995 -575 -63 -37 -132 -77 -153 -88 l-39 -21 -81 48 c-45 26 -163 94 -262
151 -99 57 -287 166 -417 242 -131 76 -240 138 -242 138 -6 0 -148 84 -188
112 -15 10 -30 18 -32 18 -6 0 -255 144 -382 221 -45 27 -84 49 -86 49 -3 0
-55 29 -117 65 l-111 64 0 -267z"/>
</g>
</svg>
